# xmcd
#
# Track frame offsets:
#	150
#	19964
#	43094
#	55452
#	72409
#	89579
#	114529
#	143333
#	163590
#	182933
#	197719
#	218521
#
# Disc length: 3260 seconds
#
# Revision: 2
# Processed by: cddbd v1.5.2PL0 Copyright (c) Steve Scherf et al.
# Submitted via: audiograbber 1.83.01
#
DISCID=af0cba0c
DTITLE=Rob Orlemans and Half Past Midnight - Libertyvlille
DYEAR=2006
DGENRE=Blues
TTITLE0=Fuzzbox Boogie
TTITLE1=Jake's Mojo
TTITLE2=Down On Parchans Farm
TTITLE3=When The Haze Is Gone
TTITLE4=100.000 Dollars
TTITLE5=Blues For Money
TTITLE6=Go Down
TTITLE7=The Devil Told Me
TTITLE8=Libertyvlle
TTITLE9=Blues Out Of Hell
TTITLE10=Heartbreaking Money
TTITLE11=Susie Q - NightLicks (Live In The USA)
EXTD=
EXTT0=
EXTT1=
EXTT2=
EXTT3=
EXTT4=
EXTT5=
EXTT6=
EXTT7=
EXTT8=
EXTT9=
EXTT10=
EXTT11=
PLAYORDER=
